<svg aria-hidden="true" style="position: absolute; width: 0; height: 0; overflow: hidden;" version="1.1" xmlns="http://www.w3.org/2000/svg" xmlns:xlink="http://www.w3.org/1999/xlink">
<defs>
<symbol id="icon-footer-logo" viewBox="0 0 145 32">
<path d="M0 21.044l21.273-20.653v6.938c0 0.401-0.164 0.786-0.456 1.070l-16.921 16.428-3.896-3.782zM6.509 27.363l14.765-14.334v6.938c0 0.401-0.164 0.786-0.456 1.070l-6.517 6.327 5.178 5.027h-7.791l-5.178-5.027zM140.858 21.010l3.782 2.609c-1.776 2.277-4.546 3.741-7.659 3.741-5.361 0-9.706-4.343-9.706-9.7s4.345-9.7 9.706-9.7c3.112 0 5.883 1.464 7.659 3.741l-3.782 2.609c-0.931-1.131-2.323-1.852-3.876-1.852-2.797 0-5.073 2.334-5.073 5.202s2.275 5.202 5.073 5.202c1.553 0 2.945-0.72 3.876-1.852zM38.323 15.816h7.825l-1.495 4.268h-6.33v7.275h-4.568v-19.401h15.144l-1.495 4.268h-9.082v3.589zM102.94 7.959h14.844v4.268h-5.138v15.132h-4.568v-15.132h-5.138v-4.268zM119.757 27.36h4.675v-19.401h-4.675v19.401zM92.343 20.067l2.313-7.036 2.312 7.036h-4.625zM91.744 7.959l-6.794 19.401h4.996l0.991-3.024h7.438l0.991 3.024h4.995l-6.794-19.401h-5.824zM78.556 7.959h4.568v19.401h-3.426l-7.708-10.532v10.532h-4.567v-19.401h3.426l7.708 10.532v-10.532zM53.577 20.067l2.313-7.036 2.313 7.036h-4.625zM52.978 7.959l-6.795 19.401h4.996l0.991-3.024h7.438l0.991 3.024h4.996l-6.795-19.401h-5.823z"></path>
</symbol>
<symbol id="icon-pocket-price" viewBox="0 0 32 32">
<path fill="#b9c400" style="fill: var(--color1, #b9c400)" d="M16.161 0l3.735 7.072 7.692-2.385-2.409 7.615 7.143 3.698-7.143 3.698 2.409 7.615-7.692-2.385-3.735 7.072-3.735-7.072-7.692 2.385 2.409-7.615-7.143-3.698 7.143-3.698-2.409-7.615 7.692 2.385 3.735-7.072z"></path>
</symbol>
<symbol id="icon-sup-play" viewBox="0 0 32 32">
<path d="M24.079 15.771l-12.119 6.928v-13.856l12.119 6.928z"></path>
<path stroke-linejoin="miter" stroke-linecap="butt" stroke-miterlimit="4" stroke-width="0.9143" d="M31.543 16c0 8.584-6.959 15.543-15.543 15.543s-15.543-6.959-15.543-15.543c0-8.584 6.959-15.543 15.543-15.543s15.543 6.959 15.543 15.543z"></path>
</symbol>
<symbol id="icon-specs-play" viewBox="0 0 28 32">
<path  d="M27.534 16l-27.365 15.644v-31.289l27.365 15.644z"></path>
</symbol>
</defs>
</svg>
